<svg width="344" height="77" viewBox="0 0 344 77" fill="none" xmlns="http://www.w3.org/2000/svg">
<g clip-path="url(#clip0_102_4)">
<path d="M122.455 38.7273C122.455 43.8485 121.47 48.1894 119.5 51.75C117.53 55.3106 114.864 58.0152 111.5 59.8636C108.152 61.7121 104.394 62.6364 100.227 62.6364C96.0455 62.6364 92.2803 61.7045 88.9318 59.8409C85.5833 57.9773 82.9242 55.2727 80.9545 51.7273C79 48.1667 78.0227 43.8333 78.0227 38.7273C78.0227 33.6061 79 29.2652 80.9545 25.7045C82.9242 22.1439 85.5833 19.4394 88.9318 17.5909C92.2803 15.7424 96.0455 14.8182 100.227 14.8182C104.394 14.8182 108.152 15.7424 111.5 17.5909C114.864 19.4394 117.53 22.1439 119.5 25.7045C121.47 29.2652 122.455 33.6061 122.455 38.7273ZM110.955 38.7273C110.955 35.697 110.523 33.1364 109.659 31.0455C108.811 28.9545 107.583 27.3712 105.977 26.2955C104.386 25.2197 102.47 24.6818 100.227 24.6818C98 24.6818 96.0833 25.2197 94.4773 26.2955C92.8712 27.3712 91.6364 28.9545 90.7727 31.0455C89.9242 33.1364 89.5 35.697 89.5 38.7273C89.5 41.7576 89.9242 44.3182 90.7727 46.4091C91.6364 48.5 92.8712 50.0833 94.4773 51.1591C96.0833 52.2348 98 52.7727 100.227 52.7727C102.47 52.7727 104.386 52.2348 105.977 51.1591C107.583 50.0833 108.811 48.5 109.659 46.4091C110.523 44.3182 110.955 41.7576 110.955 38.7273ZM162.886 27.0909L150.909 62H138.182L126.227 27.0909H137.932L144.364 51.1364H144.727L151.182 27.0909H162.886ZM182.341 62.6591C178.689 62.6591 175.538 61.9394 172.886 60.5C170.25 59.0455 168.22 56.9773 166.795 54.2955C165.386 51.5985 164.682 48.3939 164.682 44.6818C164.682 41.0758 165.394 37.9242 166.818 35.2273C168.242 32.5152 170.25 30.4091 172.841 28.9091C175.432 27.3939 178.485 26.6364 182 26.6364C184.485 26.6364 186.758 27.0227 188.818 27.7955C190.879 28.5682 192.659 29.7121 194.159 31.2273C195.659 32.7424 196.826 34.6136 197.659 36.8409C198.492 39.053 198.909 41.5909 198.909 44.4545V47.2273H168.568V40.7727H188.568C188.553 39.5909 188.273 38.5379 187.727 37.6136C187.182 36.6894 186.432 35.9697 185.477 35.4545C184.538 34.9242 183.455 34.6591 182.227 34.6591C180.985 34.6591 179.871 34.9394 178.886 35.5C177.902 36.0455 177.121 36.7955 176.545 37.75C175.97 38.6894 175.667 39.7576 175.636 40.9545V47.5227C175.636 48.947 175.917 50.197 176.477 51.2727C177.038 52.3333 177.833 53.1591 178.864 53.75C179.894 54.3409 181.121 54.6364 182.545 54.6364C183.53 54.6364 184.424 54.5 185.227 54.2273C186.03 53.9545 186.72 53.553 187.295 53.0227C187.871 52.4924 188.303 51.8409 188.591 51.0682L198.795 51.3636C198.371 53.6515 197.439 55.6439 196 57.3409C194.576 59.0227 192.705 60.3333 190.386 61.2727C188.068 62.197 185.386 62.6591 182.341 62.6591ZM204.585 62V27.0909H215.381V33.4545H215.744C216.381 31.1515 217.419 29.4394 218.858 28.3182C220.297 27.1818 221.972 26.6136 223.881 26.6136C224.396 26.6136 224.926 26.6515 225.472 26.7273C226.017 26.7879 226.525 26.8864 226.994 27.0227V36.6818C226.464 36.5 225.767 36.3561 224.903 36.25C224.055 36.1439 223.297 36.0909 222.631 36.0909C221.313 36.0909 220.123 36.3864 219.062 36.9773C218.017 37.553 217.191 38.3636 216.585 39.4091C215.994 40.4394 215.699 41.6515 215.699 43.0455V62H204.585ZM242.636 15.4545V62H231.523V15.4545H242.636ZM249.71 62V27.0909H260.824V62H249.71ZM255.278 23.0227C253.718 23.0227 252.377 22.5076 251.256 21.4773C250.134 20.4318 249.574 19.1742 249.574 17.7045C249.574 16.25 250.134 15.0076 251.256 13.9773C252.377 12.9318 253.718 12.4091 255.278 12.4091C256.854 12.4091 258.195 12.9318 259.301 13.9773C260.422 15.0076 260.983 16.25 260.983 17.7045C260.983 19.1742 260.422 20.4318 259.301 21.4773C258.195 22.5076 256.854 23.0227 255.278 23.0227ZM279.011 42.0909V62H267.898V27.0909H278.466V33.5H278.852C279.625 31.3636 280.943 29.6894 282.807 28.4773C284.67 27.25 286.89 26.6364 289.466 26.6364C291.92 26.6364 294.049 27.1894 295.852 28.2955C297.67 29.3864 299.08 30.9167 300.08 32.8864C301.095 34.8409 301.595 37.1288 301.58 39.75V62H290.466V41.9318C290.481 39.9924 289.989 38.4773 288.989 37.3864C288.004 36.2955 286.633 35.75 284.875 35.75C283.708 35.75 282.678 36.0076 281.784 36.5227C280.905 37.0227 280.223 37.7424 279.739 38.6818C279.269 39.6212 279.027 40.7576 279.011 42.0909ZM324.778 62.6591C321.127 62.6591 317.975 61.9394 315.324 60.5C312.688 59.0455 310.657 56.9773 309.233 54.2955C307.824 51.5985 307.119 48.3939 307.119 44.6818C307.119 41.0758 307.831 37.9242 309.256 35.2273C310.68 32.5152 312.688 30.4091 315.278 28.9091C317.869 27.3939 320.922 26.6364 324.438 26.6364C326.922 26.6364 329.195 27.0227 331.256 27.7955C333.316 28.5682 335.097 29.7121 336.597 31.2273C338.097 32.7424 339.263 34.6136 340.097 36.8409C340.93 39.053 341.347 41.5909 341.347 44.4545V47.2273H311.006V40.7727H331.006C330.991 39.5909 330.71 38.5379 330.165 37.6136C329.619 36.6894 328.869 35.9697 327.915 35.4545C326.975 34.9242 325.892 34.6591 324.665 34.6591C323.422 34.6591 322.309 34.9394 321.324 35.5C320.339 36.0455 319.559 36.7955 318.983 37.75C318.407 38.6894 318.104 39.7576 318.074 40.9545V47.5227C318.074 48.947 318.354 50.197 318.915 51.2727C319.475 52.3333 320.271 53.1591 321.301 53.75C322.331 54.3409 323.559 54.6364 324.983 54.6364C325.968 54.6364 326.862 54.5 327.665 54.2273C328.468 53.9545 329.157 53.553 329.733 53.0227C330.309 52.4924 330.741 51.8409 331.028 51.0682L341.233 51.3636C340.809 53.6515 339.877 55.6439 338.438 57.3409C337.013 59.0227 335.142 60.3333 332.824 61.2727C330.506 62.197 327.824 62.6591 324.778 62.6591Z" fill="#171717"/>
<circle cx="25.5" cy="42.5" r="25.5" fill="#2563EB"/>
<rect width="51" height="9" fill="#2563EB"/>
</g>
<defs>
<clipPath id="clip0_102_4">
<rect width="344" height="77" fill="white"/>
</clipPath>
</defs>
</svg>
